HIERARCHY
ROOT Hips
{
	OFFSET 0.000000 0.000000 0.000000
	CHANNELS 6 Xposition Yposition Zposition Xrotation Yrotation Zrotation
	JOINT LeftUpLeg_virtual
	{
		OFFSET 0.000000 0.000000 0.000000
		CHANNELS 3 Xrotation Yrotation Zrotation
		JOINT LeftUpLeg
		{
			OFFSET 11.394100 -6.187798 -0.413800
			CHANNELS 3 Xrotation Yrotation Zrotation
			JOINT LeftLeg
			{
				OFFSET 0.430247 -32.302673 3.732800
				CHANNELS 3 Xrotation Yrotation Zrotation
				JOINT LeftFoot
				{
					OFFSET -0.430247 -48.264931 -6.423300
					CHANNELS 3 Xrotation Yrotation Zrotation
					JOINT LeftToeBase
					{
						OFFSET 4.230900 -16.068199 23.438400
						CHANNELS 3 Xrotation Yrotation Zrotation
						JOINT LeftToe_End
						{
							OFFSET 4.510700 0.695400 19.974600
							CHANNELS 3 Xrotation Yrotation Zrotation
							End Site
							{
								OFFSET 0 0 0
							}
						}
					}
				}
			}
		}
	}
	JOINT RightUpLeg_virtual
	{
		OFFSET 0.000000 0.000000 0.000000
		CHANNELS 3 Xrotation Yrotation Zrotation
		JOINT RightUpLeg
		{
			OFFSET -11.333700 -6.187798 -0.413800
			CHANNELS 3 Xrotation Yrotation Zrotation
			JOINT RightLeg
			{
				OFFSET -0.430392 -32.302628 3.733000
				CHANNELS 3 Xrotation Yrotation Zrotation
				JOINT RightFoot
				{
					OFFSET 0.430392 -48.264973 -6.423500
					CHANNELS 3 Xrotation Yrotation Zrotation
					JOINT RightToeBase
					{
						OFFSET -4.230900 -16.068199 23.438400
						CHANNELS 3 Xrotation Yrotation Zrotation
						JOINT RightToe_End
						{
							OFFSET -4.510700 0.695400 19.974600
							CHANNELS 3 Xrotation Yrotation Zrotation
							End Site
							{
								OFFSET 0 0 0
							}
						}
					}
				}
			}
		}
	}
	JOINT Spine_virtual
	{
		OFFSET 0.000000 0.000000 0.000000
		CHANNELS 3 Xrotation Yrotation Zrotation
		JOINT Spine
		{
			OFFSET -0.002400 12.777504 0.315300
			CHANNELS 3 Xrotation Yrotation Zrotation
			JOINT Spine1
			{
				OFFSET -0.002067 5.816869 0.032633
				CHANNELS 3 Xrotation Yrotation Zrotation
				JOINT Spine1_split
				{
					OFFSET -0.002067 5.816869 0.032633
					CHANNELS 3 Xrotation Yrotation Zrotation
					JOINT Spine2
					{
						OFFSET -0.002067 5.816869 0.032633
						CHANNELS 3 Xrotation Yrotation Zrotation
						JOINT Neck_virtual
						{
							OFFSET 0.000000 0.000000 0.000000
							CHANNELS 3 Xrotation Yrotation Zrotation
							JOINT Neck
							{
								OFFSET -0.003700 21.199493 -0.826900
								CHANNELS 3 Xrotation Yrotation Zrotation
								JOINT Head
								{
									OFFSET 0.000000 20.442200 4.834800
									CHANNELS 3 Xrotation Yrotation Zrotation
									JOINT HeadTop_End
									{
										OFFSET 0.000000 34.668396 4.968400
										CHANNELS 3 Xrotation Yrotation Zrotation
										End Site
										{
											OFFSET 0 0 0
										}
									}
								}
							}
						}
						JOINT LeftShoulder_virtual
						{
							OFFSET 0.000000 0.000000 0.000000
							CHANNELS 3 Xrotation Yrotation Zrotation
							JOINT LeftShoulder
							{
								OFFSET 3.288150 8.794197 -1.372250
								CHANNELS 3 Xrotation Yrotation Zrotation
								JOINT LeftShoulder_split
								{
									OFFSET 3.288150 8.794197 -1.372250
									CHANNELS 3 Xrotation Yrotation Zrotation
									JOINT LeftArm
									{
										OFFSET 11.953299 -2.279007 -0.146200
										CHANNELS 3 Xrotation Yrotation Zrotation
										JOINT LeftForeArm
										{
											OFFSET 18.448900 0.000000 0.000000
											CHANNELS 3 Xrotation Yrotation Zrotation
											JOINT LeftHand
											{
												OFFSET 29.527798 0.000000 0.000000
												CHANNELS 3 Xrotation Yrotation Zrotation
												End Site
												{
													OFFSET 0 0 0
												}
											}
										}
									}
								}
							}
						}
						JOINT RightShoulder_virtual
						{
							OFFSET 0.000000 0.000000 0.000000
							CHANNELS 3 Xrotation Yrotation Zrotation
							JOINT RightShoulder
							{
								OFFSET -3.249400 8.794197 -1.372250
								CHANNELS 3 Xrotation Yrotation Zrotation
								JOINT RightShoulder_split
								{
									OFFSET -3.249400 8.794197 -1.372250
									CHANNELS 3 Xrotation Yrotation Zrotation
									JOINT RightArm
									{
										OFFSET -11.953299 -2.279007 -0.146200
										CHANNELS 3 Xrotation Yrotation Zrotation
										JOINT RightForeArm
										{
											OFFSET -18.448900 0.000000 0.000000
											CHANNELS 3 Xrotation Yrotation Zrotation
											JOINT RightHand
											{
												OFFSET -29.527802 0.000000 0.000000
												CHANNELS 3 Xrotation Yrotation Zrotation
												End Site
												{
													OFFSET 0 0 0
												}
											}
										}
									}
								}
							}
						}
					}
				}
			}
		}
	}
}
MOTION
Frames: 8
Frame Time: 0.03333333
0.918224 99.504295 -8.502960 0.000000 0.000000 0.000000 3.258695 3.617984 0.374414 -25.969518 15.800591 13.085551 24.714341 0.713392 3.394275 -2.406878 10.133423 -10.940227 4.478242 -5.401472 3.322292 0.000000 0.000000 0.000000 3.869351 3.740707 0.468360 -18.195494 -6.175511 -7.885633 22.143948 -1.926514 -1.706214 -7.463844 -5.818690 17.601946 8.643387 5.757477 -16.739887 0.000000 0.000000 0.000000 1.773378 9.079482 0.124175 1.848538 -2.532688 -1.044624 3.641919 2.424514 2.227650 0.160356 -0.565612 0.087112 0.000000 0.000000 0.000000 2.539831 4.212415 2.679117 -10.677344 6.222438 5.468370 -0.678243 -12.666776 8.986500 0.000000 0.000000 0.000000 0.755297 2.759637 2.007709 -1.409097 -3.503899 0.355243 0.546352 -0.731097 -1.470482 0.817006 28.098522 -76.532686 5.392377 -36.031714 0.004264 0.000000 0.000000 0.000000 2.095426 2.775366 2.546210 -1.147459 -13.449842 -1.341187 -2.899816 0.874810 -2.627737 -5.581372 -1.245416 75.089522 2.200859 15.106300 -3.962454 0.000000 0.000000 0.000000 
1.293463 99.466049 -8.165173 0.000000 0.000000 0.000000 3.302164 3.225780 0.373212 -26.260180 16.027169 13.162490 24.937354 0.539537 3.362055 -2.494396 9.967018 -10.970944 4.276353 -5.412830 3.674499 0.000000 0.000000 0.000000 3.879608 3.797989 0.445881 -18.147063 -6.133763 -8.045289 22.338723 -2.040161 -1.663732 -7.655317 -6.032870 17.042341 9.483532 5.660991 -16.639927 0.000000 0.000000 0.000000 1.774998 8.754751 -0.093000 1.874590 -2.624051 -0.894568 3.712834 2.344593 2.215165 0.154117 -0.637978 0.091774 0.000000 0.000000 0.000000 2.622697 4.137900 2.703686 -10.590019 6.393705 5.370754 -0.982223 -12.494657 9.157666 0.000000 0.000000 0.000000 0.721033 2.675879 2.000848 -1.344504 -3.272473 0.032451 0.603559 -1.003326 -1.084729 0.866232 27.826162 -76.458893 5.424866 -35.870654 -0.112869 0.000000 0.000000 0.000000 2.117141 2.684816 2.571563 -0.993066 -13.614564 -1.318218 -2.626871 1.936587 -2.313612 -4.298815 -0.777051 75.200697 2.242157 14.770967 -3.944240 0.000000 0.000000 0.000000 
1.835227 99.396347 -7.878002 0.000000 0.000000 0.000000 3.434072 2.888078 0.322598 -26.857270 16.083764 13.193415 25.622949 0.211345 3.442688 -2.655928 9.551736 -11.097620 4.149983 -5.363102 3.828364 0.000000 0.000000 0.000000 3.901471 3.952474 0.379117 -18.284394 -6.173856 -8.303748 22.288085 -2.071978 -1.674725 -7.411386 -6.451792 16.822042 9.628497 5.706085 -16.543710 0.000000 0.000000 0.000000 1.922408 8.387563 -0.357459 1.978648 -2.802152 -0.685120 3.785602 2.158251 2.197833 0.159076 -0.729011 0.077797 0.000000 0.000000 0.000000 2.760623 3.949910 2.720149 -10.790121 6.488682 5.352924 -1.655284 -11.568216 9.220676 0.000000 0.000000 0.000000 0.725394 2.483076 1.994541 -1.267412 -2.713732 -0.251188 0.416779 -1.203105 -0.764751 1.589002 27.279028 -76.224658 4.976113 -36.340848 -0.473798 0.000000 0.000000 0.000000 2.159101 2.473342 2.587930 -0.792514 -14.006898 -1.378666 -2.620484 3.280750 -2.344220 -2.469540 0.373952 75.523560 2.347180 15.024234 -3.884329 0.000000 0.000000 0.000000 
2.516094 99.272995 -7.738651 0.000000 0.000000 0.000000 3.638520 2.600173 0.238230 -27.625863 16.046683 13.165129 26.551633 -0.118822 3.589713 -2.933996 9.064661 -11.161009 4.045728 -5.248704 3.786313 0.000000 0.000000 0.000000 3.963516 4.098922 0.277320 -18.632104 -6.198452 -8.631018 22.178114 -1.971179 -1.673347 -6.371778 -6.819561 17.142771 8.823389 5.874595 -16.426205 0.000000 0.000000 0.000000 2.196414 8.014353 -0.623377 2.145355 -3.006475 -0.446442 3.859782 1.897488 2.165120 0.159683 -0.759301 0.064125 0.000000 0.000000 0.000000 2.941005 3.678493 2.700606 -11.232692 6.448903 5.435465 -2.528634 -9.931698 9.239024 0.000000 0.000000 0.000000 0.771337 2.216993 1.952962 -1.184357 -1.935334 -0.490019 0.110170 -1.376543 -0.592961 2.952291 26.460969 -75.868198 4.110501 -37.500160 -1.053408 0.000000 0.000000 0.000000 2.229017 2.190921 2.568597 -0.553201 -14.630964 -1.513335 -2.666480 4.267724 -2.650448 -0.633266 1.837935 75.794514 2.430061 15.779059 -3.735509 0.000000 0.000000 0.000000 
3.307231 99.085007 -7.729172 0.000000 0.000000 0.000000 3.869589 2.297491 0.123476 -28.437313 15.949279 13.054809 27.598443 -0.330346 3.747956 -3.282884 8.726443 -11.127614 3.959716 -5.066128 3.545756 0.000000 0.000000 0.000000 4.151265 4.254452 0.127866 -19.043138 -6.178497 -8.956105 21.953111 -1.796261 -1.645310 -4.937093 -7.060694 17.613955 8.012549 6.029516 -16.238447 0.000000 0.000000 0.000000 2.501422 7.591081 -0.839684 2.370631 -3.169526 -0.204427 3.941829 1.592010 2.093970 0.160913 -0.689890 0.064076 0.000000 0.000000 0.000000 3.152877 3.367172 2.619262 -11.826462 6.236261 5.658469 -3.366526 -7.715849 9.323206 0.000000 0.000000 0.000000 0.856199 1.917813 1.852145 -1.100409 -1.056284 -0.687658 -0.398155 -1.494549 -0.619648 4.865029 25.476114 -75.418245 2.945012 -39.228966 -1.814971 0.000000 0.000000 0.000000 2.337236 1.892584 2.483129 -0.277217 -15.429404 -1.678054 -2.698692 4.741243 -2.966005 0.776159 3.366916 75.820161 2.402319 16.886260 -3.453183 0.000000 0.000000 0.000000 
4.149941 98.821487 -7.842220 0.000000 0.000000 0.000000 4.082393 2.010405 -0.018911 -29.213511 15.897851 12.889484 28.645035 -0.302283 3.857342 -3.781790 8.698702 -10.893429 3.947137 -4.826820 3.096428 0.000000 0.000000 0.000000 4.392639 4.396572 -0.059515 -19.470366 -6.078817 -9.262683 21.477888 -1.577499 -1.617643 -3.917349 -7.136064 17.605234 8.007451 6.081956 -15.924726 0.000000 0.000000 0.000000 2.811570 6.992721 -0.998881 2.639029 -3.236878 0.032599 4.031216 1.273833 1.962117 0.146332 -0.556089 0.080239 0.000000 0.000000 0.000000 3.383396 3.044933 2.451231 -12.477952 5.883600 6.027921 -4.003849 -5.095534 9.553904 0.000000 0.000000 0.000000 0.981008 1.609610 1.681616 -1.029594 -0.137788 -0.854362 -0.935583 -1.494105 -0.816730 7.084448 24.480892 -74.916711 1.597524 -41.371535 -2.720532 0.000000 0.000000 0.000000 2.487311 1.602721 2.312990 0.037597 -16.263329 -1.829506 -2.635474 4.770738 -3.147638 1.421259 4.779176 75.484846 2.198902 18.126916 -3.000788 0.000000 0.000000 0.000000 
5.051128 98.507721 -7.977734 0.000000 0.000000 0.000000 4.250585 1.742389 -0.160410 -29.886060 15.906266 12.662734 29.574422 0.018359 3.895073 -4.391667 8.993090 -10.481668 3.927804 -4.560561 2.509929 0.000000 0.000000 0.000000 4.649200 4.420510 -0.228269 -20.056656 -5.909964 -9.616533 20.985901 -1.170051 -1.614826 -3.416442 -6.848784 16.873485 8.832019 6.056755 -15.562741 0.000000 0.000000 0.000000 3.088864 6.241753 -1.077973 2.954962 -3.177436 0.261387 4.126177 0.934887 1.763941 0.131225 -0.404417 0.103838 0.000000 0.000000 0.000000 3.612700 2.729740 2.187444 -13.089068 5.434790 6.512307 -4.360168 -2.239460 9.975079 0.000000 0.000000 0.000000 1.157802 1.294317 1.445276 -0.986598 0.773834 -1.036243 -1.345979 -1.465371 -1.039054 9.460668 23.613094 -74.389687 0.174626 -43.744452 -3.728772 0.000000 0.000000 0.000000 2.666549 1.324741 2.077251 0.378303 -17.015878 -1.974194 -2.394042 4.538596 -3.033310 1.309481 6.227821 74.888393 1.800923 19.519692 -2.382150 0.000000 0.000000 0.000000 
5.990828 98.193817 -8.107853 0.000000 0.000000 0.000000 4.392045 1.303203 -0.270007 -30.411858 15.849468 12.362032 30.423917 0.477842 3.894594 -4.875586 9.482986 -10.169417 3.617417 -4.300464 1.939086 0.000000 0.000000 0.000000 4.896436 4.128832 -0.315634 -21.086867 -5.728599 -10.029674 20.831006 -0.480126 -1.606940 -2.697216 -5.991407 15.930557 9.631681 6.023743 -15.143764 0.000000 0.000000 0.000000 3.312735 5.344594 -1.063320 3.300140 -2.988685 0.463324 4.220177 0.560436 1.496238 0.127716 -0.287502 0.084187 0.000000 0.000000 0.000000 3.819932 2.407730 1.842307 -13.578799 4.976990 7.022593 -4.439664 0.818524 10.544543 0.000000 0.000000 0.000000 1.388869 0.965589 1.158654 -0.973334 1.675334 -1.276709 -1.689313 -1.439398 -1.172127 11.857993 23.049385 -73.883980 -1.219667 -45.937523 -4.763914 0.000000 0.000000 0.000000 2.863780 1.031979 1.794778 0.738576 -17.578851 -2.107190 -2.176818 4.272203 -2.569915 0.637088 7.908880 74.164701 1.223871 21.324066 -1.625960 0.000000 0.000000 0.000000 
